<?xml version="1.0" encoding="utf-8"?>
<!-- Generator: Adobe Illustrator 18.1.1, SVG Export Plug-In . SVG Version: 6.00 Build 0)  -->
<svg version="1.1" id="Capa_1" xmlns="http://www.w3.org/2000/svg" xmlns:xlink="http://www.w3.org/1999/xlink" x="0px" y="0px"
	 viewBox="0 0 260.6 57.6" enable-background="new 0 0 260.6 57.6" xml:space="preserve">
<path fill-rule="evenodd" clip-rule="evenodd" fill="#FFFFFF" d="M6.6,56.7h8.1V22.3h10.8V19H14.7v-7.3c0-1.3,0.1-2.7,0.3-4
	c0.2-1.4,0.7-2.5,1.4-3.5c0.7-0.9,1.9-1.4,3.4-1.5c2,0.1,3.3,0.9,4.1,2.3c0.7,1.4,1.1,2.9,1.1,4.5h9.1c-0.4-3-1.6-5.3-3.9-7
	C27.9,0.9,24.2,0,19.1,0c-3.2,0-5.7,0.7-7.6,2.1c-1.8,1.3-3.1,3-3.9,5.1c-0.8,2.1-1.1,4.2-1.1,6.4V19H0v3.2h6.6V56.7z"/>
<path fill-rule="evenodd" clip-rule="evenodd" fill="#FFFFFF" d="M43.5,57.6c6,0,10.4-1.6,13.2-4.9c2.9-3.3,4.3-8.2,4.3-14.8
	c0-5.9-1.4-10.7-4.3-14.3c-2.9-3.6-7.3-5.4-13.2-5.5c-5.9,0-10.3,1.6-13.2,4.8c-2.9,3.2-4.3,8.2-4.3,15c-0.1,5.8,1.2,10.5,3.9,14.1
	C32.5,55.6,37.1,57.5,43.5,57.6z M34.9,37.9c0-2.5,0.1-5,0.4-7.6c0.3-2.6,1.1-4.8,2.4-6.6c1.2-1.8,3.2-2.7,5.8-2.8
	c2.6,0.1,4.5,1,5.7,2.8c1.2,1.8,2,3.9,2.4,6.5c0.4,2.6,0.5,5.2,0.5,7.7c0,2.8-0.1,5.4-0.5,8c-0.3,2.6-1.1,4.7-2.4,6.4
	c-1.2,1.7-3.2,2.5-5.8,2.6c-2.6-0.1-4.6-1-5.8-2.9c-1.2-1.8-2-4.1-2.4-6.7C35,42.7,34.9,40.2,34.9,37.9z"/>
<path fill-rule="evenodd" clip-rule="evenodd" fill="#FFFFFF" d="M87.4,53.7c-0.5,0.1-1,0.2-1.5,0.3c-0.5,0-1,0.1-1.5,0.1
	c-3,0-4.9-0.6-5.7-2c-0.8-1.3-1.1-3.4-1-6.2V22.3h10.6V19H77.8V5.4l-8.1,7.2V19h-6.3v3.2h6.3v24.9c0,3,0.5,5.3,1.5,6.8
	c1,1.5,2.4,2.5,4.2,3c1.8,0.5,4,0.7,6.6,0.7c0.9,0,1.8-0.1,2.7-0.2c0.9-0.1,1.8-0.3,2.7-0.4V53.7z"/>
<path fill-rule="evenodd" clip-rule="evenodd" fill="#FFFFFF" d="M107.6,57.6c6,0,10.4-1.6,13.2-4.9c2.9-3.3,4.3-8.2,4.3-14.8
	c0-5.9-1.4-10.7-4.3-14.3c-2.9-3.6-7.3-5.4-13.2-5.5c-5.9,0-10.3,1.6-13.2,4.8c-2.9,3.2-4.3,8.2-4.3,15C90,43.7,91.3,48.4,93.9,52
	C96.6,55.6,101.2,57.5,107.6,57.6z M99,37.9c0-2.5,0.1-5,0.4-7.6c0.3-2.6,1.1-4.8,2.4-6.6c1.2-1.8,3.2-2.7,5.8-2.8
	c2.6,0.1,4.5,1,5.7,2.8c1.2,1.8,2,3.9,2.4,6.5c0.4,2.6,0.5,5.2,0.5,7.7c0,2.8-0.1,5.4-0.5,8c-0.3,2.6-1.1,4.7-2.4,6.4
	s-3.2,2.5-5.8,2.6c-2.6-0.1-4.6-1-5.8-2.9c-1.2-1.8-2-4.1-2.4-6.7C99.1,42.7,99,40.2,99,37.9z"/>
<path fill-rule="evenodd" clip-rule="evenodd" fill="#FFFFFF" d="M160.6,52.1c-1,0.3-2.2,0.6-3.7,0.8c-1.4,0.2-2.8,0.3-4.1,0.3
	c-3.8,0-6.8-1.6-9.2-4.8c-2.4-3.2-3.6-7.8-3.7-13.8c-0.1-4,0.4-7.2,1.3-9.8c0.9-2.6,2.7-3.9,5.4-4c1.7,0,2.9,0.5,3.7,1.4
	c0.8,0.9,1.4,2,1.7,3.3c0.3,1.3,0.4,2.5,0.4,3.6h9.6c-0.1-3.3-1.4-6-4.1-8c-2.7-2-6.3-3-10.8-3.1c-5.7,0.1-9.9,1.9-12.4,5.4
	c-2.5,3.5-3.8,8.1-3.7,13.8c0,6.2,1.6,11.1,4.8,14.7c3.1,3.6,7.6,5.5,13.3,5.5c3.2,0,5.6-0.2,7.2-0.6c1.5-0.4,3-0.8,4.3-1.4V52.1z"
	/>
<path fill-rule="evenodd" clip-rule="evenodd" fill="#FFFFFF" d="M186.9,56.7h8.1V32.1c0-2.7-0.2-5.1-0.9-7.2
	c-0.6-2.1-1.9-3.7-3.8-4.9c-1.9-1.2-4.8-1.8-8.6-1.8c-3.8,0-6.8,0.6-8.9,1.7c-2.1,1.1-3.6,2.4-4.5,4.1c-0.9,1.7-1.5,3.4-1.8,5.2h9.6
	c-0.1-1.9,0.2-3.7,0.8-5.5c0.7-1.7,2.3-2.7,4.8-2.8c2.4,0.1,3.9,1.3,4.5,3.5c0.5,2.2,0.7,4.6,0.6,7.3v4.1c-1.4,0-3.2,0.2-5.5,0.4
	c-2.3,0.3-4.7,0.8-7.1,1.6c-2.4,0.8-4.4,2-6.1,3.7c-1.7,1.7-2.5,3.9-2.6,6.7c0.1,2.5,1.1,4.6,3.1,6.4c2,1.8,4.6,2.8,7.8,2.9
	c3.1-0.1,5.4-0.9,7-2.2c1.6-1.3,2.8-2.5,3.4-3.5V56.7z M186.9,43.4c0,2.8-0.7,5.1-2,7c-1.3,1.8-3.2,2.8-5.5,2.8
	c-1.5,0-2.7-0.6-3.6-1.8c-0.9-1.1-1.3-2.7-1.3-4.6c0.1-2.5,1-4.4,2.6-5.5c1.6-1.2,3.4-1.9,5.3-2.2c1.9-0.3,3.4-0.5,4.5-0.4V43.4z"/>
<path fill-rule="evenodd" clip-rule="evenodd" fill="#FFFFFF" d="M225,19.5c-0.7-0.2-1.9-0.5-3.5-0.8c-1.6-0.3-3.5-0.5-5.6-0.6
	c-4.7,0.1-8.2,1.2-10.4,3.2c-2.2,2.1-3.2,4.6-3.2,7.6c0.1,2.7,1,5,2.8,6.7c1.8,1.7,3.8,3.1,6.1,4.4c2.3,1.2,4.3,2.5,6.1,3.7
	c1.8,1.3,2.7,2.9,2.8,4.8c0,1.5-0.5,2.7-1.6,3.8c-1.1,1.1-2.9,1.6-5.4,1.7c-2.3-0.1-4.3-0.6-6.2-1.5c-1.8-0.9-3.3-1.8-4.5-2.7v6.3
	c0.9,0.3,2.3,0.6,4,0.9c1.7,0.3,3.9,0.5,6.3,0.5c4.1,0,7.6-0.8,10.3-2.6c2.7-1.8,4.2-4.6,4.3-8.6c-0.1-3-1-5.5-2.8-7.3
	c-1.8-1.8-3.8-3.4-6.1-4.6c-2.3-1.2-4.3-2.5-6.1-3.7c-1.8-1.2-2.7-2.8-2.8-4.7c0.1-1.7,0.7-2.9,1.9-3.5c1.2-0.6,2.4-1,3.8-0.9
	c2.3,0.1,4.3,0.7,6.1,1.6c1.7,1,2.9,1.7,3.6,2.2V19.5z"/>
<path fill-rule="evenodd" clip-rule="evenodd" fill="#FFFFFF" d="M252.5,56.7h8.1V32.1c0-2.7-0.2-5.1-0.9-7.2
	c-0.6-2.1-1.9-3.7-3.8-4.9c-1.9-1.2-4.8-1.8-8.6-1.8c-3.8,0-6.8,0.6-8.9,1.7c-2.1,1.1-3.6,2.4-4.5,4.1c-0.9,1.7-1.5,3.4-1.8,5.2h9.6
	c-0.1-1.9,0.2-3.7,0.8-5.5c0.7-1.7,2.3-2.7,4.8-2.8c2.4,0.1,3.9,1.3,4.5,3.5c0.5,2.2,0.7,4.6,0.6,7.3v4.1c-1.4,0-3.2,0.2-5.5,0.4
	c-2.3,0.3-4.7,0.8-7.1,1.6c-2.4,0.8-4.4,2-6.1,3.7c-1.7,1.7-2.5,3.9-2.6,6.7c0.1,2.5,1.1,4.6,3.1,6.4c2,1.8,4.6,2.8,7.8,2.9
	c3.1-0.1,5.4-0.9,7-2.2c1.6-1.3,2.8-2.5,3.4-3.5V56.7z M252.5,43.4c0,2.8-0.7,5.1-2,7c-1.3,1.8-3.2,2.8-5.5,2.8
	c-1.5,0-2.7-0.6-3.6-1.8c-0.9-1.1-1.3-2.7-1.3-4.6c0.1-2.5,1-4.4,2.6-5.5c1.6-1.2,3.4-1.9,5.3-2.2c1.9-0.3,3.4-0.5,4.5-0.4V43.4z"/>
</svg>
